<?xml version="1.0" encoding="utf-8"?>
<!-- Generator: Adobe Illustrator 19.1.0, SVG Export Plug-In . SVG Version: 6.00 Build 0)  -->
<!DOCTYPE svg PUBLIC "-//W3C//DTD SVG 1.1//EN" "http://www.w3.org/Graphics/SVG/1.1/DTD/svg11.dtd">
<svg version="1.1" id="Layer_1" xmlns="http://www.w3.org/2000/svg" xmlns:xlink="http://www.w3.org/1999/xlink" x="0px" y="0px"
	 viewBox="0 0 10 18" style="enable-background:new 0 0 10 18;" xml:space="preserve">
<style type="text/css">
	.st0{clip-path:url(#SVGID_2_);}
	.st1{clip-path:url(#SVGID_4_);fill:#13B5EA;}
	.st2{clip-path:url(#SVGID_6_);}
	.st3{clip-path:url(#SVGID_8_);}
	.st4{clip-path:url(#SVGID_10_);}
	.st5{clip-path:url(#SVGID_12_);fill:#13B5EA;}
</style>
<g>
	<defs>
		<rect id="SVGID_1_" x="-43" y="-38.5" width="1024" height="1729"/>
	</defs>
	<clipPath id="SVGID_2_">
		<use xlink:href="#SVGID_1_"  style="overflow:visible;"/>
	</clipPath>
	<g class="st0">
		<defs>
			<path id="SVGID_3_" d="M447.9,845.1c0.3,0.3,0.5,0.8,0.5,1.3c0,0.5-0.2,0.9-0.5,1.3l-7,7.5l-2.5-2.5l5.8-6.2l-5.8-6.2l2.5-2.5
				L447.9,845.1z"/>
		</defs>
		<clipPath id="SVGID_4_">
			<use xlink:href="#SVGID_3_"  style="overflow:visible;"/>
		</clipPath>
		<rect x="433.4" y="832.6" class="st1" width="20" height="27.4"/>
	</g>
</g>
<g>
	<defs>
		<rect id="SVGID_5_" x="0" y="0" width="10" height="18"/>
	</defs>
	<clipPath id="SVGID_6_">
		<use xlink:href="#SVGID_5_"  style="overflow:visible;"/>
	</clipPath>
	<g class="st2">
		<defs>
			<path id="SVGID_7_" d="M6,3.9c1.1,1.3,2.3,2.5,3.4,3.8C9.8,8,10,8.5,10,9c0,0.5-0.2,0.9-0.5,1.3c-0.9,0.9-1.7,1.9-2.6,2.8
				c-1.5,1.6-4.4,4.8-4.4,4.8L0,15.3L5.8,9L0,2.6L2.5,0C2.5,0,4.8,2.6,6,3.9z"/>
		</defs>
		<clipPath id="SVGID_8_">
			<use xlink:href="#SVGID_7_"  style="overflow:visible;"/>
		</clipPath>
		<g class="st3">
			<defs>
				<rect id="SVGID_9_" x="0.7" y="-0.1" width="10" height="18"/>
			</defs>
			<clipPath id="SVGID_10_">
				<use xlink:href="#SVGID_9_"  style="overflow:visible;"/>
			</clipPath>
			<g class="st4">
				<defs>
					<path id="SVGID_11_" d="M6.7,3.8C7.9,5.1,9,6.3,10.2,7.6c0.3,0.4,0.5,0.8,0.5,1.3c0,0.5-0.2,0.9-0.5,1.3
						c-0.9,0.9-1.7,1.9-2.6,2.8c-1.5,1.6-4.4,4.8-4.4,4.8l-2.5-2.6l5.8-6.4L0.7,2.5l2.5-2.6C3.2-0.1,5.5,2.5,6.7,3.8z"/>
				</defs>
				<clipPath id="SVGID_12_">
					<use xlink:href="#SVGID_11_"  style="overflow:visible;"/>
				</clipPath>
				<rect x="-4.3" y="-5.1" class="st5" width="20" height="27.9"/>
			</g>
		</g>
	</g>
</g>
</svg>
