<?xml version="1.0" encoding="utf-8"?>
<!-- Generator: Adobe Illustrator 19.2.0, SVG Export Plug-In . SVG Version: 6.00 Build 0)  -->
<svg version="1.1" xmlns="http://www.w3.org/2000/svg" xmlns:xlink="http://www.w3.org/1999/xlink" x="0px" y="0px"
	 viewBox="0 0 17.7 15.5" style="enable-background:new 0 0 17.7 15.5;" xml:space="preserve">
<style type="text/css">
	.st0{display:none;}
	.st1{display:inline;}
	.st2{fill:#13B5EA;}
</style>
<g id="Layer_1" class="st0">
	<g class="st1">
		<g id="Link">
			<g>
				<path class="st2" d="M8.5,6.1C8.3,5.9,8,5.9,7.8,6C7.6,6,7.5,6.1,7.3,6.3C7.2,6.5,7.2,6.7,7.2,6.9c0,0.2,0.2,0.4,0.4,0.5
					c0.8,0.5,1.2,1.3,1.2,2.3c0,0.7-0.3,1.4-0.8,1.9l-3.2,3.2c-0.5,0.5-1.2,0.8-1.9,0.8c-1.5,0-2.7-1.2-2.7-2.7
					c0-0.7,0.3-1.4,0.8-1.9l1.5-1.5c0.2-0.2,0.2-0.4,0.2-0.6c0-0.2-0.1-0.4-0.2-0.6C2.4,8.2,2.2,8.1,2,8.1c-0.2,0-0.4,0.1-0.6,0.2
					l-1.5,1.5c-0.8,0.8-1.3,1.9-1.3,3c0,2.4,1.9,4.3,4.3,4.3c1.1,0,2.2-0.4,3-1.3l3.2-3.2c0.8-0.8,1.3-1.9,1.3-3
					C10.4,8.2,9.7,6.9,8.5,6.1z M11.5,0c-1.1,0-2.2,0.4-3,1.3L5.2,4.5C4.4,5.3,4,6.4,4,7.5c0,1.5,0.7,2.8,2,3.6
					c0.2,0.1,0.4,0.2,0.6,0.1c0.2,0,0.4-0.2,0.5-0.4c0.1-0.2,0.2-0.4,0.1-0.6c0-0.2-0.2-0.4-0.4-0.5C6.1,9.3,5.6,8.4,5.6,7.5
					c0-0.7,0.3-1.4,0.8-1.9l3.2-3.2c0.5-0.5,1.2-0.8,1.9-0.8c1.5,0,2.7,1.2,2.7,2.7c0,0.7-0.3,1.4-0.8,1.9l-1.5,1.5
					c-0.2,0.2-0.2,0.4-0.2,0.6c0,0.2,0.1,0.4,0.2,0.6C12,9,12.2,9.1,12.5,9.1c0.2,0,0.4-0.1,0.6-0.2l1.5-1.5c0.8-0.8,1.3-1.9,1.3-3
					C15.8,1.9,13.9,0,11.5,0z"/>
			</g>
		</g>
	</g>
</g>
<g id="Layer_2">
	<g>
		<g>
			<path class="st2" d="M13.6,9.1h-0.9c-0.1,0-0.2,0-0.2,0.1c-0.1,0.1-0.1,0.1-0.1,0.2v2.9c0,0.4-0.2,0.8-0.5,1.1
				c-0.3,0.3-0.7,0.5-1.1,0.5H3.3c-0.4,0-0.8-0.2-1.1-0.5c-0.3-0.3-0.5-0.7-0.5-1.1l0-7.5c0-0.4,0.2-0.8,0.5-1.1
				c0.3-0.3,0.7-0.5,1.1-0.5h6.6c0.1,0,0.2,0,0.2-0.1c0.1-0.1,0.1-0.1,0.1-0.2l0-1c0-0.1,0-0.2-0.1-0.2C10,1.6,10,1.6,9.9,1.6H2.9
				c-0.8,0-1.4,0.3-2,0.8C0.4,3,0.1,3.6,0.1,4.4v8.2c0,0.8,0.3,1.4,0.8,2c0.6,0.6,1.2,0.8,2,0.8h8.2c0.8,0,1.4-0.3,2-0.8
				c0.6-0.6,0.8-1.2,0.8-2V9.4c0-0.1,0-0.2-0.1-0.2C13.8,9.2,13.7,9.1,13.6,9.1z"/>
			<path class="st2" d="M17.5,0.5c-0.1-0.1-0.3-0.2-0.4-0.2h-5c-0.2,0-0.3,0.1-0.4,0.2c-0.1,0.1-0.2,0.3-0.2,0.4s0.1,0.3,0.2,0.4
				l1.7,1.7L6.9,9.5C6.9,9.6,6.8,9.7,6.8,9.8c0,0.1,0,0.2,0.1,0.2l1.1,1.1c0.1,0.1,0.1,0.1,0.2,0.1s0.2,0,0.2-0.1l6.4-6.4l1.7,1.7
				c0.1,0.1,0.3,0.2,0.4,0.2c0.2,0,0.3-0.1,0.4-0.2c0.1-0.1,0.2-0.3,0.2-0.4v-5C17.7,0.8,17.7,0.6,17.5,0.5z"/>
		</g>
	</g>
</g>
</svg>
