<?xml version="1.0" encoding="utf-8"?>
<!-- Generator: Adobe Illustrator 19.2.0, SVG Export Plug-In . SVG Version: 6.00 Build 0)  -->
<svg version="1.1" id="Layer_1" xmlns="http://www.w3.org/2000/svg" xmlns:xlink="http://www.w3.org/1999/xlink" x="0px" y="0px"
	 viewBox="0 0 17.2 17.2" style="enable-background:new 0 0 17.2 17.2;" xml:space="preserve">
<style type="text/css">
	.st0{fill:#13B5EA;}
</style>
<g>
	<g id="Link">
		<g>
			<path class="st0" d="M9.8,6.1C9.7,5.9,9.4,5.9,9.2,6C9,6,8.9,6.1,8.7,6.3C8.6,6.5,8.6,6.7,8.6,6.9c0,0.2,0.2,0.4,0.4,0.5
				c0.8,0.5,1.2,1.3,1.2,2.3c0,0.7-0.3,1.4-0.8,1.9l-3.2,3.2c-0.5,0.5-1.2,0.8-1.9,0.8c-1.5,0-2.7-1.2-2.7-2.7
				c0-0.7,0.3-1.4,0.8-1.9l1.5-1.5c0.2-0.2,0.2-0.4,0.2-0.6c0-0.2-0.1-0.4-0.2-0.6C3.8,8.2,3.6,8.1,3.4,8.1c-0.2,0-0.4,0.1-0.6,0.2
				L1.3,9.9c-0.8,0.8-1.3,1.9-1.3,3c0,2.4,1.9,4.3,4.3,4.3c1.1,0,2.2-0.4,3-1.3l3.2-3.2c0.8-0.8,1.3-1.9,1.3-3
				C11.8,8.2,11.1,6.9,9.8,6.1z M12.9,0c-1.1,0-2.2,0.4-3,1.3L6.6,4.5c-0.8,0.8-1.3,1.9-1.3,3c0,1.5,0.7,2.8,2,3.6
				c0.2,0.1,0.4,0.2,0.6,0.1c0.2,0,0.4-0.2,0.5-0.4c0.1-0.2,0.2-0.4,0.1-0.6c0-0.2-0.2-0.4-0.4-0.5C7.5,9.3,7,8.4,7,7.5
				c0-0.7,0.3-1.4,0.8-1.9L11,2.4c0.5-0.5,1.2-0.8,1.9-0.8c1.5,0,2.7,1.2,2.7,2.7c0,0.7-0.3,1.4-0.8,1.9l-1.5,1.5
				C13.1,7.9,13,8.1,13,8.3c0,0.2,0.1,0.4,0.2,0.6c0.2,0.2,0.4,0.2,0.6,0.2c0.2,0,0.4-0.1,0.6-0.2l1.5-1.5c0.8-0.8,1.3-1.9,1.3-3
				C17.2,1.9,15.3,0,12.9,0z"/>
		</g>
	</g>
</g>
</svg>
